<svg version="1.1" id="Layer_1" xmlns="http://www.w3.org/2000/svg" xmlns:xlink="http://www.w3.org/1999/xlink" x="0px" y="0px"
	 width="100%" viewBox="0 0 280 280" enable-background="new 0 0 280 280" xml:space="preserve">
<path fill="#000001" opacity="1.000000" stroke="none" 
	d="
M154.000000,281.000000 
	C102.666664,281.000000 51.833332,281.000000 1.000000,281.000000 
	C1.000000,187.666672 1.000000,94.333336 1.000000,1.000000 
	C94.333336,1.000000 187.666672,1.000000 281.000000,1.000000 
	C281.000000,94.333336 281.000000,187.666672 281.000000,281.000000 
	C238.833328,281.000000 196.666672,281.000000 154.000000,281.000000 
M247.174042,121.063446 
	C247.199631,108.735603 247.092850,96.405128 247.338531,84.081673 
	C247.404709,80.762016 246.246002,79.092140 243.449631,77.485329 
	C216.814957,62.181000 190.294220,46.678539 163.680634,31.337276 
	C156.239548,27.047894 148.599579,23.103508 140.325592,18.954124 
	C139.444580,19.420132 138.547409,19.858128 137.684906,20.356186 
	C104.225822,39.677368 70.753166,58.975307 37.374886,78.435112 
	C36.040451,79.213097 34.865566,81.531044 34.859711,83.136017 
	C34.720196,121.404892 34.739239,159.674408 34.801479,197.943695 
	C34.803616,199.257690 35.549400,200.570496 36.286728,202.490417 
	C47.001213,208.853287 57.664879,215.303665 68.440712,221.560883 
	C91.170311,234.759338 113.993332,247.797318 136.684860,261.060516 
	C140.025818,263.013306 142.768265,262.954956 145.903168,260.974274 
	C149.979156,258.398926 154.164673,255.993561 158.342743,253.583786 
	C184.564606,238.459900 210.819901,223.393661 236.997971,208.194397 
	C240.213333,206.327515 243.035263,203.783005 246.875290,201.095245 
	C247.000397,188.821350 246.965942,176.542526 247.343338,164.276398 
	C247.463776,160.361786 245.997925,158.366959 242.712402,156.521057 
	C233.928528,151.586060 225.371475,146.247375 217.206711,140.554688 
	C221.012573,138.231796 224.841232,135.945312 228.619080,133.577728 
	C234.745605,129.738190 240.838791,125.845474 247.174042,121.063446 
z"/>
<path fill="#141446" opacity="1.000000" stroke="none" 
	d="
M246.039520,201.552521 
	C243.035263,203.783005 240.213333,206.327515 236.997971,208.194397 
	C210.819901,223.393661 184.564606,238.459900 158.342743,253.583786 
	C154.164673,255.993561 149.979156,258.398926 145.903168,260.974274 
	C142.768265,262.954956 140.025818,263.013306 136.684860,261.060516 
	C113.993332,247.797318 91.170311,234.759338 68.440712,221.560883 
	C57.664879,215.303665 47.001213,208.853287 36.277451,201.884827 
	C41.540977,198.150543 46.775036,194.954300 52.093014,191.904388 
	C81.734802,174.904449 111.396927,157.939987 141.358978,141.119965 
	C166.884811,155.721283 192.123001,170.132614 217.312927,184.627808 
	C226.945282,190.170609 236.467255,195.905289 246.039520,201.552521 
z"/>
<path fill="#7A76FE" opacity="1.000000" stroke="none" 
	d="
M141.052094,140.963394 
	C111.396927,157.939987 81.734802,174.904449 52.093014,191.904388 
	C46.775036,194.954300 41.540977,198.150543 36.108372,201.581543 
	C35.549400,200.570496 34.803616,199.257690 34.801479,197.943695 
	C34.739239,159.674408 34.720196,121.404892 34.859711,83.136017 
	C34.865566,81.531044 36.040451,79.213097 37.374886,78.435112 
	C70.753166,58.975307 104.225822,39.677368 137.684906,20.356186 
	C138.547409,19.858128 139.444580,19.420132 140.685547,19.446089 
	C141.053741,33.694920 141.061996,47.451782 140.800293,61.410793 
	C125.476517,70.458450 110.377846,79.228844 95.385048,88.176620 
	C85.837791,93.874474 76.447525,99.835381 66.894051,106.164795 
	C66.801231,117.655487 66.801231,128.659714 66.801231,141.124008 
	C78.070259,134.285278 88.049484,128.229279 98.373657,122.085197 
	C101.885979,120.187828 105.047539,118.368279 108.221786,116.571136 
	C119.157738,110.379639 130.098114,104.195976 141.038940,98.477402 
	C141.044754,112.951447 141.048431,126.957420 141.052094,140.963394 
z"/>
<path fill="#151547" opacity="1.000000" stroke="none" 
	d="
M66.986870,105.678329 
	C76.447525,99.835381 85.837791,93.874474 95.385048,88.176620 
	C110.377846,79.228844 125.476517,70.458450 141.081894,61.585140 
	C152.740891,67.866470 163.874756,74.129677 174.950394,80.494164 
	C198.964737,94.293716 222.949310,108.145065 246.946045,121.975220 
	C240.838791,125.845474 234.745605,129.738190 228.619080,133.577728 
	C224.841232,135.945312 221.012573,138.231796 216.625885,140.792816 
	C197.980270,130.513092 179.940613,119.951668 161.837784,109.499687 
	C154.979095,105.539711 147.974747,101.832016 141.036804,98.009323 
	C130.098114,104.195976 119.157738,110.379639 108.221786,116.571136 
	C105.047539,118.368279 101.885979,120.187828 98.074188,121.893028 
	C87.282143,116.418739 77.134506,111.048538 66.986870,105.678329 
z"/>
<path fill="#FD6392" opacity="1.000000" stroke="none" 
	d="
M141.038940,98.477402 
	C147.974747,101.832016 154.979095,105.539711 161.837784,109.499687 
	C179.940613,119.951668 197.980270,130.513092 216.384674,141.050018 
	C225.371475,146.247375 233.928528,151.586060 242.712402,156.521057 
	C245.997925,158.366959 247.463776,160.361786 247.343338,164.276398 
	C246.965942,176.542526 247.000397,188.821350 246.457397,201.323883 
	C236.467255,195.905289 226.945282,190.170609 217.312927,184.627808 
	C192.123001,170.132614 166.884811,155.721283 141.358978,141.119965 
	C141.048431,126.957420 141.044754,112.951447 141.038940,98.477402 
z"/>
<path fill="#FD6391" opacity="1.000000" stroke="none" 
	d="
M247.060059,121.519333 
	C222.949310,108.145065 198.964737,94.293716 174.950394,80.494164 
	C163.874756,74.129677 152.740891,67.866470 141.351837,61.382996 
	C141.061996,47.451782 141.053741,33.694920 141.048157,19.469460 
	C148.599579,23.103508 156.239548,27.047894 163.680634,31.337276 
	C190.294220,46.678539 216.814957,62.181000 243.449631,77.485329 
	C246.246002,79.092140 247.404709,80.762016 247.338531,84.081673 
	C247.092850,96.405128 247.199631,108.735603 247.060059,121.519333 
z"/>
<path fill="#A04475" opacity="1.000000" stroke="none" 
	d="
M66.894051,106.164795 
	C77.134506,111.048538 87.282143,116.418739 97.729248,121.981117 
	C88.049484,128.229279 78.070259,134.285278 66.801231,141.124008 
	C66.801231,128.659714 66.801231,117.655487 66.894051,106.164795 
z"/>
</svg>