<?xml version="1.0" encoding="UTF-8"?>
<svg width="50px" height="50px" version="1.1" viewBox="0 0 752 752"
  xmlns="http://www.w3.org/2000/svg">
  <path d="m595.74 286.02c0-11.84-34.57-18.469-88.086-21.785l-0.47266-24.152v-4.2617l-1.4219-65.352c-0.94531-8.5273-58.723-15.629-130.23-15.629-71.512 0-129.76 6.6289-129.76 15.156l-1.4219 65.828v4.2617l-0.47266 24.152c-53.512 3.3125-87.609 9.9414-87.609 21.781 0 11.367 31.73 31.73 81.457 47.359 0 1.8945-0.47266 4.2617-0.47266 6.1562-14.68 9.9453-23.68 26.52-23.68 44.516 0 24.625 16.574 45.465 39.781 51.621v1.4219l8.0508 64.879c0.47266 3.7891 1.8945 7.5781 4.7344 10.418l38.832 45.938 33.152 40.254 75.77 0.003907 33.152-40.254 38.832-46.41c1.8945-2.3672 3.3164-5.2109 3.7891-8.0508 0.47266-0.94531 0.47266-2.3672 0.94531-3.3164l7.1055-64.406c23.68-5.6836 40.727-26.992 40.727-52.094 0-17.996-8.9961-34.098-23.207-44.043 0-1.8945-0.47266-4.2617-0.47266-6.6289 49.73-15.633 80.984-36.469 80.984-47.363zm-165.75 240.11-8.5234 10.418-10.891-20.363h-69.617l-10.891 19.891-8.5234-10.418v-37.414h107.98l-0.003906 37.887zm89.98-142.55c0 18.941-15.629 34.57-34.57 34.57h-0.94531c-1.8945 3.7891-3.3164 6.6289-4.7344 9.4727v1.4219l-7.5781 68.668-9.4727 12.312-15.629 18.473v-63.461l-54.461-6.1562-7.5781 8.9961h-18.469l-7.5781-8.9961-54.461 6.1562v62.512l-14.68-16.574-9.9453-12.312-9.4727-73.879c-0.94531-1.8945-1.8945-3.7891-2.8398-6.1562h-0.94531c-18.941 0-34.57-15.629-34.57-34.57 0-14.68 9.4727-27.469 22.73-32.203 0.94531-10.418 2.3672-25.102 3.7891-36.465l0.47266-0.47266c15.629-2.3672 48.305-5.6836 116.97-5.2109 69.145 0 102.29 3.3164 117.92 5.6836l0.47266 0.47266c0.94531 11.84 2.3672 26.047 2.8398 36.938 13.262 3.7891 22.73 16.102 22.73 30.781z"/>
</svg>
