<svg width="47" height="41" viewBox="0 0 94 105" fill="none"
  xmlns="http://www.w3.org/2000/svg">
  <g clip-path="url(#clip0_325_108)">
    <rect width="93.8279" height="105" fill="#142850"/>
    <path d="M24.3955 8.40002C19.2359 8.40002 15.0127 13.126 15.0127 18.9V86.1C15.0127 91.874 19.2359 96.6 24.3955 96.6H84.4454C89.605 96.6 93.8282 91.874 93.8282 86.1V18.9C93.8282 13.126 89.605 8.40002 84.4454 8.40002H24.3955ZM24.3955 12.6H84.4454C87.5764 12.6 90.075 15.3962 90.075 18.9V86.1C90.075 89.6038 87.5764 92.4 84.4454 92.4H24.3955C21.2645 92.4 18.7658 89.6038 18.7658 86.1V18.9C18.7658 15.3962 21.2645 12.6 24.3955 12.6ZM33.7783 23.1246C31.723 23.1246 29.8736 23.8121 28.5041 25.1016C27.1347 26.3911 26.294 28.3175 26.294 30.3803C26.294 34.3014 29.3333 37.3582 33.1992 37.6606C33.2016 37.6619 33.2041 37.6633 33.2065 37.6647C33.3907 37.7349 33.5837 37.7723 33.7783 37.7754C38.0437 37.7754 41.2625 34.4318 41.2625 30.3803C41.2622 30.3434 41.261 30.3064 41.2589 30.2696C41.0679 26.2791 37.8888 23.1246 33.7783 23.1246ZM33.7783 27.2754C36.3909 27.2754 37.4225 28.5811 37.5351 30.4336C37.5123 32.2317 36.5182 33.6246 33.7783 33.6246C31.1785 33.6246 30.0032 32.1347 30.0032 30.3803C30.0032 29.5031 30.2892 28.842 30.8901 28.2762C31.4911 27.7103 32.4557 27.2754 33.7783 27.2754ZM28.1486 39.9C27.6509 39.9001 27.1736 40.1213 26.8217 40.5152C26.4698 40.909 26.2721 41.4431 26.272 42V81.9C26.2721 82.457 26.4698 82.9911 26.8217 83.3849C27.1736 83.7787 27.6509 84 28.1486 84H39.408C39.9056 84 40.3829 83.7787 40.7348 83.3849C41.0867 82.9911 41.2845 82.457 41.2845 81.9V69.583V42C41.2845 41.4431 41.0867 40.909 40.7348 40.5152C40.3829 40.1213 39.9056 39.9001 39.408 39.9H28.1486ZM45.0376 39.9C44.54 39.9001 44.0627 40.1213 43.7108 40.5152C43.3589 40.909 43.1611 41.4431 43.1611 42V81.9C43.1611 82.457 43.3589 82.9911 43.7108 83.3849C44.0627 83.7787 44.54 84 45.0376 84H56.297C56.7947 84 57.2719 83.7787 57.6239 83.3849C57.9758 82.9911 58.1735 82.457 58.1735 81.9V60.9C58.1735 59.1577 58.5984 57.4246 59.3464 56.2899C60.0944 55.1551 61.0381 54.4741 62.832 54.5098C64.6818 54.5454 65.661 55.2545 66.4018 56.3678C67.1426 57.4811 67.5563 59.15 67.5563 60.9V81.9C67.5564 82.457 67.7541 82.9911 68.106 83.3849C68.4579 83.7787 68.9352 84 69.4329 84H80.6923C81.1899 84 81.6672 83.7787 82.0191 83.3849C82.371 82.9911 82.5688 82.457 82.5688 81.9V59.3496C82.5688 53.1304 80.9227 48.2041 78.101 44.8711C75.2793 41.5381 71.3548 39.9 67.2045 39.9C63.2599 39.9 60.2581 41.3803 58.1735 42.8901V42C58.1735 41.4431 57.9758 40.909 57.6239 40.5152C57.2719 40.1213 56.7947 39.9001 56.297 39.9H45.0376ZM30.0252 44.1H37.5314V69.583V79.8H30.0252V44.1ZM46.9142 44.1H54.4204V47.3772C54.4205 47.8175 54.5443 48.2467 54.7743 48.604C55.0043 48.9613 55.3288 49.2287 55.702 49.3683C56.0751 49.508 56.4781 49.5129 56.8539 49.3822C57.2296 49.2516 57.5592 48.9921 57.796 48.6405C57.796 48.6405 60.7429 44.1 67.2045 44.1C70.4947 44.1 73.3162 45.3234 75.3778 47.7586C77.4394 50.1938 78.8157 53.9454 78.8157 59.3496V79.8H71.3095V60.9C71.3095 58.45 70.7849 55.9169 69.4146 53.8576C68.0443 51.7983 65.7395 50.3645 62.8979 50.3098C60.0417 50.253 57.6998 51.7167 56.3263 53.8002C54.9529 55.8837 54.4204 58.4423 54.4204 60.9V79.8H46.9142V44.1Z" fill="#F6F54D"/>
  </g>
  <defs>
    <clipPath id="clip0_325_108">
      <rect width="93.8279" height="105" fill="white"/>
    </clipPath>
  </defs>
</svg>
