<svg version="1.1" id="Layer_1" xmlns="http://www.w3.org/2000/svg" xmlns:xlink="http://www.w3.org/1999/xlink" x="0px" y="0px"
	 width="100%" viewBox="0 0 218 120" enable-background="new 0 0 218 120" xml:space="preserve">
<path fill="#818181" opacity="1.000000" stroke="none" 
	d="
M161.000000,121.000000 
	C107.333344,121.000000 54.166679,121.000000 1.000014,121.000000 
	C1.000010,81.000008 1.000010,41.000023 1.000005,1.000025 
	C73.666649,1.000017 146.333298,1.000017 218.999954,1.000008 
	C218.999969,40.999973 218.999969,80.999947 218.999985,120.999962 
	C199.833328,121.000000 180.666672,121.000000 161.000000,121.000000 
M83.988914,96.226624 
	C83.918129,94.939873 83.847351,93.653122 83.779976,92.428200 
	C80.137360,92.428200 76.814316,92.428200 73.243851,92.428200 
	C73.243851,98.365517 73.243851,104.464272 73.243851,110.715904 
	C79.229546,111.783112 77.915794,107.498177 77.964111,104.539612 
	C78.085220,97.122711 78.012535,97.121521 84.018936,97.824768 
	C84.013824,99.321457 83.930824,100.822639 84.017075,102.314049 
	C84.393250,108.819023 91.486000,113.106651 97.262688,110.158112 
	C98.415840,109.569511 99.000053,107.866234 99.846611,106.676926 
	C98.476624,106.354256 97.119286,105.923706 95.730553,105.760780 
	C95.156708,105.693474 94.415894,106.532394 93.923286,106.384666 
	C92.320343,105.903984 89.736526,105.447777 89.464828,104.453506 
	C88.907967,102.415710 89.039627,99.731232 90.010529,97.912285 
	C90.562965,96.877335 93.766907,96.187088 95.007263,96.828880 
	C97.120468,97.922318 98.929459,98.775948 99.662331,96.162903 
	C99.926582,95.220703 97.782120,92.773506 96.333504,92.329720 
	C91.172615,90.748665 87.255379,93.332153 83.988914,96.226624 
M95.769043,25.004284 
	C92.662613,25.336187 89.559418,25.702606 86.449173,25.993784 
	C75.305664,27.037024 64.007454,27.235046 53.049896,29.271170 
	C35.912560,32.455620 19.005133,36.877335 2.000308,40.774906 
	C1.868459,41.482647 1.736611,42.190392 1.604763,42.898136 
	C2.967173,43.493855 4.459033,44.798935 5.672326,44.577522 
	C20.781080,41.820354 35.767170,38.273933 50.950539,36.074726 
	C67.040802,33.744156 83.280296,31.790955 99.507294,31.248466 
	C114.513489,30.746794 129.596054,32.208996 144.631821,33.043583 
	C152.517624,33.481297 160.476257,33.867149 168.224167,35.263275 
	C183.649872,38.042904 198.941696,41.560574 214.327713,44.574951 
	C215.528000,44.810112 217.031952,43.495270 218.394775,42.900826 
	C218.264496,42.184574 218.134216,41.468327 218.003937,40.752079 
	C203.207977,37.438843 188.528152,33.402557 173.585510,31.002554 
	C156.420013,28.245523 139.047073,26.650066 121.713646,25.125246 
	C113.444481,24.397806 105.058289,25.000608 95.769043,25.004284 
M105.967598,118.205406 
	C105.967598,115.390190 105.967598,112.574974 105.967598,109.374138 
	C106.929695,109.888748 107.453522,110.283333 108.042999,110.465721 
	C111.954071,111.675865 115.555679,111.296700 118.414597,108.069298 
	C121.476578,104.612648 121.840561,100.600639 119.743851,96.684082 
	C117.900543,93.240860 114.727127,91.621964 110.645302,91.971504 
	C108.464249,92.158264 106.203568,91.742470 104.079941,92.139488 
	C102.955513,92.349709 101.196602,93.695076 101.173798,94.565941 
	C100.953613,102.973221 101.041740,111.388573 101.041740,120.421646 
	C103.172546,119.831772 104.508408,119.461960 105.967598,118.205406 
M121.061890,42.840054 
	C121.061890,47.425014 121.061890,52.009975 121.061890,56.982342 
	C126.052910,56.982342 130.199738,56.875954 134.337952,57.018719 
	C137.227081,57.118397 138.096619,55.815178 138.018158,53.120876 
	C137.552383,37.127815 140.943802,40.368843 124.600235,40.110279 
	C123.451553,40.092106 122.283714,41.284206 121.061890,42.840054 
M82.035278,54.154549 
	C82.914665,55.082695 83.748581,56.755875 84.681160,56.812798 
	C89.243462,57.091274 93.832054,56.938984 98.911728,56.938984 
	C98.911728,51.844204 99.079262,47.400616 98.786232,42.987606 
	C98.718506,41.967663 97.103958,40.258560 96.152542,40.224461 
	C91.726089,40.065811 86.882118,39.419739 83.045097,41.013134 
	C81.541161,41.637676 82.272079,47.663422 82.005646,51.230846 
	C81.956451,51.889610 82.005379,52.555702 82.035278,54.154549 
M86.693779,17.982542 
	C89.678719,17.972994 92.742958,18.356537 95.613045,17.777599 
	C96.923988,17.513161 98.820564,15.316113 98.774879,14.056398 
	C98.629868,10.058029 97.696976,6.088056 97.046646,2.110702 
	C97.040100,2.070668 96.732338,2.096454 96.571198,2.062770 
	C84.484901,-0.463622 81.253036,2.251771 82.008522,14.300283 
	C82.018890,14.465687 82.033867,14.633117 82.020111,14.797373 
	C81.785194,17.601988 83.459450,18.157728 86.693779,17.982542 
M121.027962,6.692852 
	C121.043282,9.347057 120.821785,12.033971 121.181786,14.640572 
	C121.342575,15.804755 122.614853,17.681818 123.480080,17.738089 
	C128.188034,18.044292 132.926376,17.883625 137.977219,17.883625 
	C137.977219,13.115973 138.061783,9.147427 137.917725,5.187197 
	C137.881729,4.197453 137.144241,2.407063 136.670135,2.387109 
	C131.884613,2.185692 127.081467,2.177520 122.300667,2.436452 
	C121.820511,2.462458 121.454918,4.603608 121.027962,6.692852 
M56.085106,109.536629 
	C60.575882,110.091042 65.066658,110.645454 69.999107,111.254395 
	C69.999107,106.571480 69.832375,102.601250 70.042801,98.651100 
	C70.286522,94.075935 67.485062,92.264496 63.766716,92.148499 
	C60.866673,92.058037 57.927559,93.220177 55.005806,93.825684 
	C54.983383,94.567795 54.960957,95.309906 54.938534,96.052025 
	C56.564922,96.257248 58.316425,96.951019 59.793392,96.572777 
	C63.664528,95.581398 64.190994,95.596008 65.517647,98.663048 
	C54.606503,99.802162 51.817749,102.673790 56.085106,109.536629 
M135.589584,110.996384 
	C138.957275,110.747696 142.324966,110.499008 145.999786,110.227646 
	C145.999786,107.089378 145.973267,103.767967 146.007339,100.447174 
	C146.040619,97.202812 145.969986,93.952255 142.192810,92.697060 
	C138.136703,91.349159 134.223099,91.269073 131.052505,95.595375 
	C132.465302,96.273308 133.898956,96.167618 135.310486,96.299194 
	C137.211975,96.476440 139.096436,96.836494 140.988190,97.118088 
	C140.934280,97.627930 140.880356,98.137764 140.826431,98.647606 
	C136.739487,99.510193 131.240952,97.920738 130.067169,104.016861 
	C129.368912,107.643227 131.263901,109.976425 135.589584,110.996384 
M155.747757,96.120506 
	C159.248108,95.980721 160.261810,97.831436 160.044647,101.072762 
	C159.835861,104.189041 159.999512,107.330269 159.999512,110.702423 
	C161.822418,110.702423 163.195618,110.702423 164.961899,110.702423 
	C164.961899,106.475166 165.248367,102.482368 164.874924,98.552277 
	C164.552811,95.162193 163.133530,92.115387 158.928436,92.026802 
	C155.435638,91.953217 151.940048,92.011734 148.300171,92.011734 
	C148.300171,98.512550 148.300171,104.590538 148.300171,111.019814 
	C150.006577,110.873131 151.383682,110.754753 153.000000,110.615814 
	C153.000000,108.244904 152.746368,106.220299 153.061981,104.288712 
	C153.490051,101.668770 154.354080,99.120056 155.747757,96.120506 
M125.320107,110.964455 
	C126.196175,110.153473 127.816269,109.358208 127.833771,108.529099 
	C128.018723,99.769775 127.948303,91.005058 127.948303,81.880836 
	C125.929314,82.107826 124.552284,82.262642 123.007675,82.436295 
	C123.007675,91.328247 122.965393,99.801659 123.069855,108.273270 
	C123.080902,109.168861 123.953972,110.053825 125.320107,110.964455 
z"/>
<path fill="#000000" opacity="1.000000" stroke="none" 
	d="
M96.247070,25.002577 
	C105.058289,25.000608 113.444481,24.397806 121.713646,25.125246 
	C139.047073,26.650066 156.420013,28.245523 173.585510,31.002554 
	C188.528152,33.402557 203.207977,37.438843 218.003937,40.752079 
	C218.134216,41.468327 218.264496,42.184574 218.394775,42.900826 
	C217.031952,43.495270 215.528000,44.810112 214.327713,44.574951 
	C198.941696,41.560574 183.649872,38.042904 168.224167,35.263275 
	C160.476257,33.867149 152.517624,33.481297 144.631821,33.043583 
	C129.596054,32.208996 114.513489,30.746794 99.507294,31.248466 
	C83.280296,31.790955 67.040802,33.744156 50.950539,36.074726 
	C35.767170,38.273933 20.781080,41.820354 5.672326,44.577522 
	C4.459033,44.798935 2.967173,43.493855 1.604763,42.898136 
	C1.736611,42.190392 1.868459,41.482647 2.000308,40.774906 
	C19.005133,36.877335 35.912560,32.455620 53.049896,29.271170 
	C64.007454,27.235046 75.305664,27.037024 86.449173,25.993784 
	C89.559418,25.702606 92.662613,25.336187 96.247070,25.002577 
z"/>
<path fill="#000000" opacity="1.000000" stroke="none" 
	d="
M105.905930,118.648781 
	C104.508408,119.461960 103.172546,119.831772 101.041740,120.421646 
	C101.041740,111.388573 100.953613,102.973221 101.173798,94.565941 
	C101.196602,93.695076 102.955513,92.349709 104.079941,92.139488 
	C106.203568,91.742470 108.464249,92.158264 110.645302,91.971504 
	C114.727127,91.621964 117.900543,93.240860 119.743851,96.684082 
	C121.840561,100.600639 121.476578,104.612648 118.414597,108.069298 
	C115.555679,111.296700 111.954071,111.675865 108.042999,110.465721 
	C107.453522,110.283333 106.929695,109.888748 105.967598,109.374138 
	C105.967598,112.574974 105.967598,115.390190 105.905930,118.648781 
M107.430824,98.057190 
	C107.477364,100.380997 106.653900,103.500587 107.832405,104.789001 
	C108.865303,105.918236 112.720093,105.843620 114.300507,104.777306 
	C116.773666,103.108620 116.221840,100.164932 114.304497,97.854630 
	C112.357231,95.508270 110.234268,95.145157 107.430824,98.057190 
z"/>
<path fill="#0094C7" opacity="1.000000" stroke="none" 
	d="
M121.093338,42.376789 
	C122.283714,41.284206 123.451553,40.092106 124.600235,40.110279 
	C140.943802,40.368843 137.552383,37.127815 138.018158,53.120876 
	C138.096619,55.815178 137.227081,57.118397 134.337952,57.018719 
	C130.199738,56.875954 126.052910,56.982342 121.061890,56.982342 
	C121.061890,52.009975 121.061890,47.425014 121.093338,42.376789 
z"/>
<path fill="#0094C7" opacity="1.000000" stroke="none" 
	d="
M82.022141,53.686481 
	C82.005379,52.555702 81.956451,51.889610 82.005646,51.230846 
	C82.272079,47.663422 81.541161,41.637676 83.045097,41.013134 
	C86.882118,39.419739 91.726089,40.065811 96.152542,40.224461 
	C97.103958,40.258560 98.718506,41.967663 98.786232,42.987606 
	C99.079262,47.400616 98.911728,51.844204 98.911728,56.938984 
	C93.832054,56.938984 89.243462,57.091274 84.681160,56.812798 
	C83.748581,56.755875 82.914665,55.082695 82.022141,53.686481 
z"/>
<path fill="#0094C6" opacity="1.000000" stroke="none" 
	d="
M86.227043,17.980404 
	C83.459450,18.157728 81.785194,17.601988 82.020111,14.797373 
	C82.033867,14.633117 82.018890,14.465687 82.008522,14.300283 
	C81.253036,2.251771 84.484901,-0.463622 96.571198,2.062770 
	C96.732338,2.096454 97.040100,2.070668 97.046646,2.110702 
	C97.696976,6.088056 98.629868,10.058029 98.774879,14.056398 
	C98.820564,15.316113 96.923988,17.513161 95.613045,17.777599 
	C92.742958,18.356537 89.678719,17.972994 86.227043,17.980404 
z"/>
<path fill="#0094C6" opacity="1.000000" stroke="none" 
	d="
M121.032059,6.227994 
	C121.454918,4.603608 121.820511,2.462458 122.300667,2.436452 
	C127.081467,2.177520 131.884613,2.185692 136.670135,2.387109 
	C137.144241,2.407063 137.881729,4.197453 137.917725,5.187197 
	C138.061783,9.147427 137.977219,13.115973 137.977219,17.883625 
	C132.926376,17.883625 128.188034,18.044292 123.480080,17.738089 
	C122.614853,17.681818 121.342575,15.804755 121.181786,14.640572 
	C120.821785,12.033971 121.043282,9.347057 121.032059,6.227994 
z"/>
<path fill="#000000" opacity="1.000000" stroke="none" 
	d="
M55.790325,109.259796 
	C51.817749,102.673790 54.606503,99.802162 65.517647,98.663048 
	C64.190994,95.596008 63.664528,95.581398 59.793392,96.572777 
	C58.316425,96.951019 56.564922,96.257248 54.938534,96.052025 
	C54.960957,95.309906 54.983383,94.567795 55.005806,93.825684 
	C57.927559,93.220177 60.866673,92.058037 63.766716,92.148499 
	C67.485062,92.264496 70.286522,94.075935 70.042801,98.651100 
	C69.832375,102.601250 69.999107,106.571480 69.999107,111.254395 
	C65.066658,110.645454 60.575882,110.091042 55.790325,109.259796 
z"/>
<path fill="#000000" opacity="1.000000" stroke="none" 
	d="
M135.185699,110.990623 
	C131.263901,109.976425 129.368912,107.643227 130.067169,104.016861 
	C131.240952,97.920738 136.739487,99.510193 140.826431,98.647606 
	C140.880356,98.137764 140.934280,97.627930 140.988190,97.118088 
	C139.096436,96.836494 137.211975,96.476440 135.310486,96.299194 
	C133.898956,96.167618 132.465302,96.273308 131.052505,95.595375 
	C134.223099,91.269073 138.136703,91.349159 142.192810,92.697060 
	C145.969986,93.952255 146.040619,97.202812 146.007339,100.447174 
	C145.973267,103.767967 145.999786,107.089378 145.999786,110.227646 
	C142.324966,110.499008 138.957275,110.747696 135.185699,110.990623 
M140.432526,102.386169 
	C139.308411,102.593727 138.106064,102.619156 137.081787,103.059158 
	C136.018936,103.515755 135.128464,104.373688 134.162598,105.056114 
	C135.333618,105.688988 136.970581,107.137581 137.580933,106.788933 
	C138.951004,106.006317 139.811218,104.331100 140.432526,102.386169 
z"/>
<path fill="#000000" opacity="1.000000" stroke="none" 
	d="
M155.389435,96.330643 
	C154.354080,99.120056 153.490051,101.668770 153.061981,104.288712 
	C152.746368,106.220299 153.000000,108.244904 153.000000,110.615814 
	C151.383682,110.754753 150.006577,110.873131 148.300171,111.019814 
	C148.300171,104.590538 148.300171,98.512550 148.300171,92.011734 
	C151.940048,92.011734 155.435638,91.953217 158.928436,92.026802 
	C163.133530,92.115387 164.552811,95.162193 164.874924,98.552277 
	C165.248367,102.482368 164.961899,106.475166 164.961899,110.702423 
	C163.195618,110.702423 161.822418,110.702423 159.999512,110.702423 
	C159.999512,107.330269 159.835861,104.189041 160.044647,101.072762 
	C160.261810,97.831436 159.248108,95.980721 155.389435,96.330643 
z"/>
<path fill="#000000" opacity="1.000000" stroke="none" 
	d="
M83.949310,97.086273 
	C87.255379,93.332153 91.172615,90.748665 96.333504,92.329720 
	C97.782120,92.773506 99.926582,95.220703 99.662331,96.162903 
	C98.929459,98.775948 97.120468,97.922318 95.007263,96.828880 
	C93.766907,96.187088 90.562965,96.877335 90.010529,97.912285 
	C89.039627,99.731232 88.907967,102.415710 89.464828,104.453506 
	C89.736526,105.447777 92.320343,105.903984 93.923286,106.384666 
	C94.415894,106.532394 95.156708,105.693474 95.730553,105.760780 
	C97.119286,105.923706 98.476624,106.354256 99.846611,106.676926 
	C99.000053,107.866234 98.415840,109.569511 97.262688,110.158112 
	C91.486000,113.106651 84.393250,108.819023 84.017075,102.314049 
	C83.930824,100.822639 84.013824,99.321457 84.018311,97.418640 
	C84.017677,97.012512 83.949310,97.086273 83.949310,97.086273 
z"/>
<path fill="#000000" opacity="1.000000" stroke="none" 
	d="
M124.873611,110.954086 
	C123.953972,110.053825 123.080902,109.168861 123.069855,108.273270 
	C122.965393,99.801659 123.007675,91.328247 123.007675,82.436295 
	C124.552284,82.262642 125.929314,82.107826 127.948303,81.880836 
	C127.948303,91.005058 128.018723,99.769775 127.833771,108.529099 
	C127.816269,109.358208 126.196175,110.153473 124.873611,110.954086 
z"/>
<path fill="#000000" opacity="1.000000" stroke="none" 
	d="
M84.054611,96.978394 
	C78.012535,97.121521 78.085220,97.122711 77.964111,104.539612 
	C77.915794,107.498177 79.229546,111.783112 73.243851,110.715904 
	C73.243851,104.464272 73.243851,98.365517 73.243851,92.428200 
	C76.814316,92.428200 80.137360,92.428200 83.779976,92.428200 
	C83.847351,93.653122 83.918129,94.939873 83.969116,96.656448 
	C83.949310,97.086273 84.017677,97.012512 84.054611,96.978394 
z"/>
<path fill="#818181" opacity="1.000000" stroke="none" 
	d="
M107.713448,97.783340 
	C110.234268,95.145157 112.357231,95.508270 114.304497,97.854630 
	C116.221840,100.164932 116.773666,103.108620 114.300507,104.777306 
	C112.720093,105.843620 108.865303,105.918236 107.832405,104.789001 
	C106.653900,103.500587 107.477364,100.380997 107.713448,97.783340 
z"/>
<path fill="#818181" opacity="1.000000" stroke="none" 
	d="
M140.655762,102.702728 
	C139.811218,104.331100 138.951004,106.006317 137.580933,106.788933 
	C136.970581,107.137581 135.333618,105.688988 134.162598,105.056114 
	C135.128464,104.373688 136.018936,103.515755 137.081787,103.059158 
	C138.106064,102.619156 139.308411,102.593727 140.655762,102.702728 
z"/>
</svg>