<?xml version="1.0" encoding="UTF-8"?>
<svg width="752pt" height="752pt" version="1.1" viewBox="0 0 752 752" xmlns="http://www.w3.org/2000/svg">
 <path d="m515.71 325.33c-1.8945-21.312-4.2617-48.777-4.2617-48.777v-1.4219c-0.47266-1.4219-0.47266-2.8398-0.94531-4.7344-6.6328-53.988-63.934-95.191-134.02-95.191-72.457 0-131.18 44.516-134.5 101.35v1.4219s-2.8398 26.992-4.7344 47.832c-14.68 9.9453-23.68 26.52-23.68 44.516 0 24.625 16.574 45.465 39.781 51.621v1.4219l8.0508 64.879c0.47266 3.7891 1.8945 7.5781 4.7344 10.418l38.832 45.938 33.152 40.254h75.77l33.152-40.254 38.832-46.41c1.8945-2.3672 3.3164-5.2109 3.7891-8.0508 0.47266-0.94531 0.47266-2.3672 0.94531-3.3164l7.1055-64.406c23.68-5.6836 40.727-26.992 40.727-52.094 0.47656-18.945-8.5234-35.047-22.73-44.992zm-193.7 158.65v-9.4727h107.98v36.938l-8.5234 10.418-10.891-20.363h-11.367l-46.883 0.003906h-11.367l-10.891 19.891-8.5234-10.418v-15.629m125.5-44.516-54.461-6.1562-7.5781 8.9961h-18.469l-7.5781-8.9961-54.461 6.1562v62.512l-14.68-16.574-9.9453-12.312-9.4727-73.879c-0.94531-1.8945-1.8945-3.7891-2.8398-6.1562h-0.94531c-18.941 0-34.57-15.629-34.57-34.57 0-14.68 9.4727-27.469 22.73-32.203 1.8945-21.312 5.6836-57.777 5.6836-57.777v-0.94531c1.8945-46.883 53.043-84.297 115.55-84.297 60.617 0 110.34 35.047 115.55 79.562 0.47266 1.4219 0.47266 2.8398 0.94531 4.7344 0 0 3.3164 37.414 4.7344 59.199 12.785 5.2109 22.258 17.523 22.258 32.203 0 18.941-15.629 34.57-34.57 34.57h-0.94531c-1.8945 3.7891-3.3164 6.6289-4.7344 9.4727v1.4219l-7.5781 68.668-9.4727 12.312-15.16 17.516" fill="#ff001b"/>
</svg>
